<?xml version="1.0" standalone="no"?>
<!DOCTYPE svg PUBLIC "-//W3C//DTD SVG 20010904//EN"
 "http://www.w3.org/TR/2001/REC-SVG-20010904/DTD/svg10.dtd">
<svg version="1.0" xmlns="http://www.w3.org/2000/svg"
 width="260.000000pt" height="260.000000pt" viewBox="0 0 260.000000 260.000000"
 preserveAspectRatio="xMidYMid meet">
<metadata>
Created by potrace 1.11, written by Peter Selinger 2001-2013
</metadata>
<g transform="translate(0.000000,260.000000) scale(0.100000,-0.100000)"
fill="#000000" stroke="none">
<path d="M152 2171 c-26 -20 -9 -77 25 -84 47 -10 91 -44 113 -87 12 -23 68
-180 124 -348 57 -169 128 -381 159 -472 31 -91 101 -300 157 -465 127 -379
115 -352 152 -357 40 -6 37 -15 148 357 10 33 76 246 147 474 l128 414 27 -84
c56 -175 388 -1152 392 -1157 9 -8 57 -5 66 4 5 5 32 83 60 174 28 91 62 199
75 240 13 41 42 136 65 210 51 167 74 241 138 445 28 88 69 221 92 295 60 197
88 259 136 304 23 21 56 44 75 50 31 10 34 14 34 51 l0 40 -240 1 c-132 1
-248 0 -257 -3 -19 -4 -25 -48 -10 -69 4 -6 32 -14 62 -18 155 -20 178 -91
104 -326 -64 -208 -145 -464 -164 -520 -10 -30 -42 -129 -71 -220 l-52 -165
-33 100 c-18 55 -71 222 -119 370 -48 149 -99 304 -112 345 -100 307 -111 355
-90 383 13 19 72 36 123 37 27 0 32 4 36 29 9 59 15 58 -304 57 l-293 -1 -3
-37 c-3 -35 -1 -38 41 -56 56 -25 82 -67 132 -218 l38 -111 -29 -89 c-15 -49
-29 -93 -30 -99 -2 -5 -44 -140 -94 -300 -51 -159 -100 -317 -110 -350 -16
-56 -18 -58 -28 -35 -8 20 -247 749 -332 1010 -46 144 -37 183 47 196 l44 6
-3 42 -3 41 -278 1 c-152 0 -281 -2 -285 -5z"/>
</g>
</svg>
